# xmcd CD database file
# Generated: do jan 22 21:23:41 2004 by KSCD
# 
# Track frame offsets:
#       182
#       11767
#       31545
#       50770
#       61725
#       88097
#       101802
#       115352
#       131230
#       146785
#       161605
#       179435
#       195340
#       209720
#       223272
#       239442
#       260820
#       283437
#       297380
#       310365
#
# Disc length: 4345 seconds
#
# Revision: 10
# Processed by: cddbd v1.4PL0 Copyright (c) Steve Scherf et al.
# Submitted via: Kscd 1.3.3
#
DISCID=4b10f714
DTITLE=Boudewijn de Groot - Wonderkind aan het strand deel 1
DYEAR=1900
DGENRE=
TTITLE0=Strand
TTITLE1=Naast jou
TTITLE2=Prikkebeen
TTITLE3=Verdronken vlinder
TTITLE4=Mensen om me heen
TTITLE5=Voor de overlevenden
TTITLE6=Meisje van 16
TTITLE7=Picknick
TTITLE8=Eva
TTITLE9=Testament
TTITLE10=Jimmy
TTITLE11=De Nachtwacht
TTITLE12=Beneden alle peil
TTITLE13=Het land van Maas en Waal
TTITLE14=Apocalyps
TTITLE15=Cinderella
TTITLE16=Tegenland
TTITLE17=Vrienden van vroeger
TTITLE18=De reiziger
TTITLE19=Als de rook om je hoofd is verdwenen
EXTD=
EXTT0=
EXTT1=
EXTT2=
EXTT3=
EXTT4=
EXTT5=
EXTT6=
EXTT7=
EXTT8=
EXTT9=
EXTT10=
EXTT11=
EXTT12=
EXTT13=
EXTT14=
EXTT15=
EXTT16=
EXTT17=
EXTT18=
EXTT19=
PLAYORDER=
